<svg xmlns="http://www.w3.org/2000/svg" viewBox="0 0 100 100">
  <circle cx="50" cy="50" r="50" fill="#000"/>
  <g transform="translate(14.0000,67.3668) scale(0.045226,-0.045226)">
    <path d="M0 0V256Q0 362 75 436Q150 512 256 512H0Q0 618 75 692Q150 768 256 768H512Q618 768 692 692Q768 617 768 512Q768 405 692 331Q617 256 512 256H768V0Z" fill="#fff"/>
    <path d="M1080 0Q973 0 899 75Q824 150 824 256V512Q824 618 899 692Q974 768 1080 768H1336Q1442 768 1516 692Q1592 617 1592 512H1336Q1442 512 1516 436Q1592 361 1592 256Q1592 149 1516 75Q1441 0 1336 0Z" fill="#fff"/>
  </g>
</svg>